<svg width="10" height="17" viewBox="0 0 10 17" fill="none" xmlns="http://www.w3.org/2000/svg">
<path id="$" d="M4.39467 17V0H5.55211V17H4.39467ZM4.8468 14.9744C3.88226 14.9744 2.95992 14.8297 2.07978 14.5404C1.19964 14.239 0.506382 13.8532 0 13.3829L0.669147 11.9723C1.15142 12.3943 1.76631 12.7439 2.51382 13.0212C3.26134 13.2985 4.039 13.4372 4.8468 13.4372C5.58226 13.4372 6.17906 13.3528 6.63722 13.184C7.09537 13.0152 7.43296 12.7861 7.64998 12.4968C7.867 12.1954 7.97551 11.8578 7.97551 11.484C7.97551 11.05 7.83083 10.7003 7.54147 10.4351C7.26417 10.1698 6.89644 9.95884 6.43828 9.8021C5.99218 9.63331 5.49786 9.48863 4.95531 9.36806C4.41275 9.24749 3.86417 9.10884 3.30957 8.95211C2.76701 8.78331 2.26666 8.57232 1.80851 8.31913C1.36241 8.06594 1.00071 7.72835 0.723402 7.30636C0.446098 6.87232 0.307446 6.31771 0.307446 5.64254C0.307446 4.99148 0.47624 4.39467 0.813828 3.85212C1.16347 3.29751 1.69397 2.85744 2.40531 2.53191C3.12872 2.19432 4.04502 2.02553 5.15424 2.02553C5.8897 2.02553 6.61913 2.12198 7.34253 2.31489C8.06594 2.50779 8.69289 2.7851 9.22338 3.1468L8.62657 4.59361C8.08402 4.2319 7.51133 3.97269 6.90849 3.81595C6.30566 3.64715 5.72091 3.56276 5.15424 3.56276C4.4429 3.56276 3.85815 3.65318 3.39999 3.83403C2.94184 4.01488 2.60425 4.25602 2.38723 4.55744C2.18226 4.85885 2.07978 5.19644 2.07978 5.5702C2.07978 6.0163 2.21843 6.37197 2.49574 6.63722C2.7851 6.90247 3.15283 7.11346 3.59893 7.27019C4.05708 7.42693 4.55744 7.57161 5.09999 7.70424C5.64254 7.8248 6.18509 7.96346 6.72764 8.12019C7.28225 8.27693 7.7826 8.48189 8.2287 8.73508C8.68686 8.98827 9.05459 9.32586 9.33189 9.74785C9.6092 10.1698 9.74785 10.7124 9.74785 11.3755C9.74785 12.0145 9.57303 12.6113 9.22338 13.1659C8.87374 13.7085 8.33118 14.1485 7.59573 14.4861C6.87232 14.8117 5.95601 14.9744 4.8468 14.9744Z" fill="#999999"/>
</svg>
